/* XPM */
static char const *icone_xpm[] = {
/* width height ncolors chars_per_pixel */
"32 32 313 2",
"   c #ff8080",
" . c #d34040",
" + c #ff4040",
" @ c #c01818",
" # c #c34040",
" $ c #e0a0a0",
" % c #fb0000",
" & c #ff0000",
" * c #f20000",
" = c #c80000",
" - c #e90000",
" ; c #fc0000",
" > c #f60000",
" , c #cc0000",
" ' c #f00000",
" ) c #e60000",
" ! c #c20000",
" ~ c #d70000",
" { c #d30000",
" ] c #cf0000",
" ^ c #cb0000",
" / c #c70000",
" ( c #ed0000",
" _ c #fd0000",
" : c #ee0000",
" < c #e00000",
" [ c #bd0000",
" } c #c40000",
" | c #e80000",
" 1 c #fe0000",
" 2 c #f80000",
" 3 c #e10000",
" 4 c #d60000",
" 5 c #c30000",
" 6 c #ef0000",
" 7 c #f90000",
" 8 c #e40000",
" 9 c #ec0000",
" 0 c #f10000",
" a c #f30000",
" b c #f70000",
" c c #de0000",
" d c #e30000",
" e c #eb0000",
" f c #da0000",
" g c #fa0000",
" h c #f15c5c",
" i c #ca2222",
" j c #cd7d7d",
" k c #e9b7b7",
" l c #e18888",
" m c #d68c8c",
" n c #e32626",
" o c #e2b8b8",
" p c #db8b8b",
" q c #ed5555",
" r c #ff0707",
" s c #d50101",
" t c #f80a0a",
" u c #d92929",
" v c #f50101",
" w c #ff0101",
" x c #faf3f3",
" y c #fb2323",
" z c #de7171",
" A c #ff7272",
" B c #f08b8b",
" C c #f8d9d9",
" D c #e56b6b",
" E c #d89494",
" F c #f74545",
" G c #ea5454",
" H c #e88e8e",
" I c #eed1d1",
" J c #ee4242",
" K c #ff2b2b",
" L c #b21e1e",
" M c #e56c6c",
" N c #e15959",
" O c #f2d9d9",
" P c #f85252",
" Q c #e02b2b",
" R c #e0abab",
" S c #e27d7d",
" T c #c12b2b",
" U c #ff7f7f",
" V c #c23030",
" W c #df4a4a",
" X c #ff1616",
" Y c #f8e5e5",
" Z c #e97878",
" ` c #ed1414",
".  c #fbf1f1",
".. c #bb2424",
".+ c #cc6666",
".@ c #ed2d2d",
".# c #ff6363",
".$ c #b81f1f",
".% c #c02525",
".& c #ecd3d3",
".* c #dd2a2a",
".= c #f5e3e3",
".- c #ffffff",
".; c #ebd0d0",
".> c #fb3030",
"., c #ff4b4b",
".' c #f25757",
".) c #de2525",
".! c #cc0f0f",
".~ c #ca2626",
".{ c #efacac",
".] c #ba0f0f",
".^ c #e03e3e",
"./ c #e06262",
".( c #fd0606",
"._ c #f3dfdf",
".: c #f92a2a",
".< c #d72929",
".[ c #f20202",
".} c #f50202",
".| c #ff0606",
".1 c #cc0505",
".2 c #fc0202",
".3 c #bd2121",
".4 c #d9a0a0",
".5 c #c96060",
".6 c #f5e0e0",
".7 c #f4d0d0",
".8 c #ee5959",
".9 c #ec7676",
".0 c #ff2323",
".a c #c91818",
".b c #ff3939",
".c c #cf4b4b",
".d c #d17d7d",
".e c #de9595",
".f c #f09d9d",
".g c #f9e9e9",
".h c #e86666",
".i c #e89a9a",
".j c #f22222",
".k c #e97373",
".l c #fefdfd",
".m c #df8f8f",
".n c #db2a2a",
".o c #ac1d1d",
".p c #d28484",
".q c #fb4d4d",
".r c #cd6868",
".s c #dd2828",
".t c #f7e5e5",
".u c #e94141",
".v c #da6d6d",
".w c #f22121",
".x c #df1616",
".y c #cf7373",
".z c #d70808",
".A c #e97171",
".B c #f2bfbf",
".C c #ff7e7e",
".D c #e67070",
".E c #fbf6f6",
".F c #da1111",
".G c #f2afaf",
".H c #fe2a2a",
".I c #ca5b5b",
".J c #e9c8c8",
".K c #ce3939",
".L c #eedada",
".M c #c90707",
".N c #ba0303",
".O c #c71b1b",
".P c #fdfbfb",
".Q c #c30303",
".R c #e81f1f",
".S c #ffbebe",
".T c #e71010",
".U c #e97474",
".V c #f6cfcf",
".W c #d05252",
".X c #ff1515",
".Y c #ef7676",
".Z c #dd8b8b",
".` c #d50303",
"+  c #e69999",
"+. c #fdfafa",
"++ c #f4dddd",
"+@ c #ff1313",
"+# c #ff3131",
"+$ c #ea3434",
"+% c #fa7c7c",
"+& c #ff7878",
"+* c #c22020",
"+= c #e62020",
"+- c #c66060",
"+; c #eaabab",
"+> c #ff6a6a",
"+, c #e16666",
"+' c #fcf9f9",
"+) c #d9a7a7",
"+! c #fe5b5b",
"+~ c #f6e9e9",
"+{ c #ff0d0d",
"+] c #fa0505",
"+^ c #c82c2c",
"+/ c #f22828",
"+( c #f24a4a",
"+_ c #c43636",
"+: c #ba0c0c",
"+< c #e3a1a1",
"+[ c #f60303",
"+} c #f11f1f",
"+| c #fa0303",
"+1 c #f7efef",
"+2 c #fe5454",
"+3 c #ff0505",
"+4 c #ba3e3e",
"+5 c #fe6262",
"+6 c #ec3b3b",
"+7 c #e12b2b",
"+8 c #d17777",
"+9 c #f13636",
"+0 c #ca3e3e",
"+a c #eda9a9",
"+b c #ef3f3f",
"+c c #ebc5c5",
"+d c #f85959",
"+e c #f6e8e8",
"+f c #f1cccc",
"+g c #c95e5e",
"+h c #ff7777",
"+i c #e1b5b5",
"+j c #ee4545",
"+k c #fdf9f9",
"+l c #f17272",
"+m c #f43d3d",
"+n c #ee2d2d",
"+o c #df2b2b",
"+p c #faebeb",
"+q c #bb4848",
"+r c #ca8181",
"+s c #f0cfcf",
"+t c #edd2d2",
"+u c #ea2d2d",
"+v c #c71f1f",
"+w c #e7c5c5",
"+x c #d01d1d",
"+y c #e62d2d",
"+z c #dc8282",
"+A c #f5d5d5",
"+B c #eb2f2f",
"+C c #f57979",
"+D c #f07777",
"+E c #ff7d7d",
"+F c #fefefe",
"+G c #f76060",
"+H c #c00404",
"+I c #dfa0a0",
"+J c #e59999",
"+K c #bc0d0d",
"+L c #cf4747",
"+M c #ff4e4e",
"+N c #f10808",
"+O c #e95a5a",
"+P c #d88989",
"+Q c #f05d5d",
"+R c #df1414",
"+S c #ed0a0a",
"+T c #e86565",
"+U c #df4d4d",
"+V c #db1818",
"+W c #ff5555",
"+X c #f3c2c2",
"+Y c #f9f1f1",
"+Z c #e75a5a",
"+` c #f40808",
"@  c #e6b9b9",
"@. c #f7e7e7",
"@+ c #f2dada",
"@@ c #c81212",
"@# c #d62929",
"@$ c #e78787",
"@% c #ff4747",
"@& c #f3c9c9",
"@* c #eacdcd",
"@= c #f1cece",
"@- c #d86363",
"@; c #ed6767",
"@> c #ba2424",
"@, c #f81313",
"@' c #a72626",
"@) c #e03434",
"@! c #ee1010",
"@~ c #ee7070",
"@{ c #ee3030",
"@] c #e96f6f",
"@^ c #f52525",
"@/ c #ea2727",
"@( c #e86767",
"@_ c #da1e1e",
"@: c #c73c3c",
"@< c #da4848",
"@[ c #cb3333",
"@} c #f8e3e3",
"@| c #f3d8d8",
"@1 c #ff5c5c",
"@2 c #c95656",
"@3 c #f10404",
"@4 c #f30404",
"@5 c #c95252",
"@6 c #ee8787",
"@7 c #fefcfc",
"@8 c #eed6d6",
".S.C.C.C.C.C.C.C.C.C.C.C.C.C.C.C.C.C.C.C.C.C.C.C.C.C.C.C.C.C.C.S",
".C.,+E                                                    +E., U",
".C+h+&+&+&+&+&+&+&+&+&+&+&+&+&+&+&+&+&+&+&+&+&+&+&+&+&+&+&+&+h U",
".C A A A A A A A A A A A A A A A A A A A A A A A A A A A A A A U",
".C+>+>+>+>+>+>+>+>+>+>+>+>+>+>+>+>+>+>+>+>+>+>+>+>+>+>+>+>+>+> U",
".C.#.#.#.#.#.#.#.#.#.#.#.#.#.#.#.#.#+G+O+Z+Q+5.#.#.#.#.#.#.#.# U",
".C@1@1@1@1@1@1@1@1@1@1+!.' G q+d@1@1 G.W+z D+!@1@1@1@1@1@1@1@1 U",
".C+W+W+W+W+W+W+W+W+W+W P W.c z.8+W+2@<.4.- S+2+W+W+W+W+W+W+W+W U",
".C+M+M+M+M+M+M+M+M+M+M+(+0+i.-@(+M.q . o.-+,+M+M+M+M+M+M+M+M+M U",
".C@%@%@%@%@%@%@%@%@%@% J+_+w.-.h@% F.K+t.-+U@%@%@%@%@%@%@%@%@% U",
".C + + + + + + + + + ++6 V.;.-+T ++m@[+e.-.^ + + + + + + + + + U",
".C.b.b.b.b.b.b.b.b.b.b+$ T.&.-+T.b+9+^+Y.-@).b.b.b.b.b.b.b.b.b U",
".C+#+#+#+#+#+#+#+#+#+#+u.%@8.-./+n+o..+'+k.~+7+o.*.n u.< Q.@.> U",
".C K K K K.H.:+/@/ n.) i.o.L.-+g+*.$@'.-.E+q@5.I.+.y.d.p p@#+/ U",
".C.0 y.j+=@_+x.O @.3 #+-+r+1.-._.t+k.-.-.-.-.-.-.-.-.-.-.- N.w U",
"+% `+V@@+:@>.r $@++F.-.-.-.-.-@|.{.i+P.-+..v@].A.k.k.k.U.9+j@, U",
"+D.`.N.5+c.l.-.-+..V.f M@:.J.-.D.2@3.M x.-.x X X X X.X+@+{ r+3 U",
".Y s l.-.- C B+b+` % & * = R.- Z w v.1.=.-+R.|.(+]+[.[@!+S@4+| U",
"+C -+y+l@^ ; & & & & & > , E.-@$ ' ) ! I.-+v ~ { ] ^ /.Q.a.F ( U",
".C & & & & & & & _ > : < [ j.-.e }+H L@*.- m.Z+< k+s@.@7.- H | U",
".C & & & 1 2 : 3 4 , 5+K+4+).-+~++.P.-.-.-.-.-.-@7. @}+A@&@6 6 U",
".C & & & 7 8 ^.]@2+I O.l.-.-.-+F Y.B+J@ .-.m.s.T - 9 6 0 a b ; U",
".C & & & 7 c@-+..-.-.-+p+;+8.-+f d > d+L.-+  e & & & & & & & & U",
".C & & & % |.z+X.G@~@{.} | 5.6.g ( & *.!@7@= < & & & & & & & & U",
".C & & & & % b b ; & & & > f+a+F+N & g c.7+F.R & & & & & & & & U",
".C & & & & & & & & & & & _ 6+B h t & & 0.u@;+} & & & & & & & & U",
".C & & & & & & & & & & & & & & & & & & & & & & & & & & & & & & U",
".C & & & & & & & & & & & & & & & & & & & & & & & & & & & & & & U",
".C & & & & & & & & & & & & & & & & & & & & & & & & & & & & & & U",
".C & & & & & & & & & & & & & & & & & & & & & & & & & & & & & & U",
".C & & & & & & & & & & & & & & & & & & & & & & & & & & & & & & U",
".S.C.C.C.C.C.C.C.C.C.C.C.C.C.C.C.C.C.C.C.C.C.C.C.C.C.C.C.C.C.C.S",
};
