/* XPM */
static char *image_xpm[] = {
/* width height ncolors chars_per_pixel */
"48 48 520 2",
"   c #da4040",
" . c #d06060",
" + c #f03030",
" @ c #dc2020",
" # c #fc0000",
" $ c #d40000",
" % c #d24040",
" & c #d60000",
" * c #e50000",
" = c #ff0000",
" - c #fa0000",
" ; c #eb0000",
" > c #dd0000",
" , c #df0000",
" ' c #ce0000",
" ) c #ea0000",
" ! c #f40000",
" ~ c #db0000",
" { c #da0000",
" ] c #e00000",
" ^ c #e70000",
" / c #ed0000",
" ( c #f20000",
" _ c #f70000",
" : c #f60000",
" < c #e10000",
" [ c #ec0000",
" } c #fb0000",
" | c #de0000",
" 1 c #f80000",
" 2 c #fd0000",
" 3 c #f90000",
" 4 c #fe0000",
" 5 c #e60000",
" 6 c #ca0000",
" 7 c #ef0000",
" 8 c #e40000",
" 9 c #e20000",
" 0 c #f30000",
" a c #e80000",
" b c #f00000",
" c c #e90000",
" d c #cc0000",
" e c #ee0000",
" f c #d10000",
" g c #bf0000",
" h c #c50000",
" i c #d20000",
" j c #cd0000",
" k c #cb0000",
" l c #f5c0c0",
" m c #f10000",
" n c #f50000",
" o c #dc0000",
" p c #c30000",
" q c #d30000",
" r c #d90000",
" s c #c10000",
" t c #d70000",
" u c #be0000",
" v c #d80000",
" w c #e30000",
" x c #c20000",
" y c #de4040",
" z c #e14040",
" A c #f25d5d",
" B c #ed1616",
" C c #ed2727",
" D c #cb0909",
" E c #c42424",
" F c #e94f4f",
" G c #dd7474",
" H c #e5bcbc",
" I c #d84949",
" J c #f7e2e2",
" K c #b62c2c",
" L c #d82a2a",
" M c #f76363",
" N c #f0c3c3",
" O c #fe3232",
" P c #ff4141",
" Q c #d22626",
" R c #eec7c7",
" S c #d11f1f",
" T c #e39d9d",
" U c #bb0101",
" V c #d20101",
" W c #e28b8b",
" X c #ff4646",
" Y c #e29797",
" Z c #e64747",
" ` c #f63b3b",
".  c #c81d1d",
".. c #faf3f3",
".+ c #e9b4b4",
".@ c #d18484",
".# c #cd1515",
".$ c #ed1e1e",
".% c #f5e2e2",
".& c #ecb1b1",
".* c #d52626",
".= c #fd6565",
".- c #f62828",
".; c #d52727",
".> c #e23e3e",
"., c #f94444",
".' c #f1d1d1",
".) c #eac2c2",
".! c #db7c7c",
".~ c #fc3737",
".{ c #f0c6c6",
".] c #f85252",
".^ c #eecccc",
"./ c #d95e5e",
".( c #ee1616",
"._ c #ff8282",
".: c #ff7f7f",
".< c #c80808",
".[ c #d95a5a",
".} c #f20606",
".| c #ff5959",
".1 c #df4949",
".2 c #e49a9a",
".3 c #f63636",
".4 c #ff1616",
".5 c #e89d9d",
".6 c #cc1212",
".7 c #f7eded",
".8 c #ed7979",
".9 c #fa2e2e",
".0 c #da6262",
".a c #d20909",
".b c #df4242",
".c c #ea4848",
".d c #da2828",
".e c #f15454",
".f c #d83333",
".g c #d62a2a",
".h c #eabcbc",
".i c #e84a4a",
".j c #eb4d4d",
".k c #ff1212",
".l c #fd6161",
".m c #c82121",
".n c #b50202",
".o c #cd3333",
".p c #ee2323",
".q c #e13636",
".r c #fc2e2e",
".s c #d35555",
".t c #ffffff",
".u c #db3030",
".v c #ec6868",
".w c #c01e1e",
".x c #c01212",
".y c #ff4b4b",
".z c #f92929",
".A c #e42a2a",
".B c #f65656",
".C c #de0f0f",
".D c #ff0e0e",
".E c #f42424",
".F c #e42525",
".G c #df4545",
".H c #f14f4f",
".I c #d70202",
".J c #d65c5c",
".K c #d90202",
".L c #e9bfbf",
".M c #c75c5c",
".N c #f7ebeb",
".O c #fe5858",
".P c #e06262",
".Q c #ea1717",
".R c #db8a8a",
".S c #f31212",
".T c #fc2525",
".U c #ff0a0a",
".V c #df8787",
".W c #d94545",
".X c #d16d6d",
".Y c #df4e4e",
".Z c #dc3434",
".` c #ff3838",
"+  c #fe2929",
"+. c #e49f9f",
"++ c #fc0202",
"+@ c #d47070",
"+# c #d93737",
"+$ c #de8989",
"+% c #d95858",
"+& c #d14242",
"+* c #f41a1a",
"+= c #faeeee",
"+- c #f13535",
"+; c #de9595",
"+> c #ff5454",
"+, c #d75c5c",
"+' c #f93f3f",
"+) c #e9c4c4",
"+! c #e18f8f",
"+~ c #d05f5f",
"+{ c #f8eaea",
"+] c #fefdfd",
"+^ c #cf4949",
"+/ c #d04c4c",
"+( c #c12121",
"+_ c #c41717",
"+: c #d77777",
"+< c #e45757",
"+[ c #f80b0b",
"+} c #fd5858",
"+| c #dd2828",
"+1 c #e22a2a",
"+2 c #f43535",
"+3 c #ff7373",
"+4 c #e6a6a6",
"+5 c #fbefef",
"+6 c #e72e2e",
"+7 c #e75c5c",
"+8 c #f73f3f",
"+9 c #f3dbdb",
"+0 c #f64848",
"+a c #d67878",
"+b c #d85c5c",
"+c c #d74e4e",
"+d c #ee2f2f",
"+e c #f3d4d4",
"+f c #e2adad",
"+g c #f01616",
"+h c #ebb7b7",
"+i c #e00505",
"+j c #e08585",
"+k c #e9abab",
"+l c #f83131",
"+m c #ff7e7e",
"+n c #ee2727",
"+o c #df9f9f",
"+p c #b30d0d",
"+q c #faefef",
"+r c #f3c5c5",
"+s c #f2d3d3",
"+t c #d26262",
"+u c #e7a5a5",
"+v c #d86969",
"+w c #e44f4f",
"+x c #f0cdcd",
"+y c #ca6868",
"+z c #e29e9e",
"+A c #d65656",
"+B c #faecec",
"+C c #f1d5d5",
"+D c #db1919",
"+E c #fdfbfb",
"+F c #fc2929",
"+G c #f35858",
"+H c #ebbdbd",
"+I c #f34242",
"+J c #ecadad",
"+K c #f85a5a",
"+L c #f8dada",
"+M c #f0d1d1",
"+N c #ffbebe",
"+O c #f05454",
"+P c #dfb0b0",
"+Q c #c42929",
"+R c #f55151",
"+S c #f9efef",
"+T c #ff5d5d",
"+U c #eed2d2",
"+V c #f75a5a",
"+W c #ce0303",
"+X c #d54444",
"+Y c #d67e7e",
"+Z c #e9a7a7",
"+` c #cf1616",
"@  c #eec3c3",
"@. c #d86262",
"@+ c #d62727",
"@@ c #fe6161",
"@# c #e07676",
"@$ c #ce5858",
"@% c #ee9898",
"@& c #c12222",
"@* c #e59191",
"@= c #fdfafa",
"@- c #e82222",
"@; c #fbf3f3",
"@> c #f51f1f",
"@, c #cd1b1b",
"@' c #ff7979",
"@) c #f54c4c",
"@! c #fdfcfc",
"@~ c #d82f2f",
"@{ c #e03d3d",
"@] c #f12727",
"@^ c #fa6060",
"@/ c #c62020",
"@( c #d62020",
"@_ c #fe2020",
"@: c #d26060",
"@< c #e40303",
"@[ c #fe0b0b",
"@} c #e9adad",
"@| c #d21414",
"@1 c #c13a3a",
"@2 c #da9696",
"@3 c #e1a5a5",
"@4 c #fd5353",
"@5 c #f52424",
"@6 c #ff2f2f",
"@7 c #c14747",
"@8 c #efcbcb",
"@9 c #d57d7d",
"@0 c #f25858",
"@a c #f6e5e5",
"@b c #ff4f4f",
"@c c #df7272",
"@d c #d49696",
"@e c #d87f7f",
"@f c #f83636",
"@g c #fa2525",
"@h c #dc2626",
"@i c #dd1e1e",
"@j c #ff0303",
"@k c #f13030",
"@l c #f9f0f0",
"@m c #e13030",
"@n c #c86363",
"@o c #f3d5d5",
"@p c #d70707",
"@q c #f33a3a",
"@r c #cd5858",
"@s c #fe6565",
"@t c #dd1414",
"@u c #df3d3d",
"@v c #fe3737",
"@w c #e68c8c",
"@x c #d62828",
"@y c #da9595",
"@z c #fc6565",
"@A c #da3c3c",
"@B c #f64343",
"@C c #d62b2b",
"@D c #f2cfcf",
"@E c #e90909",
"@F c #f74848",
"@G c #dc2424",
"@H c #f3d9d9",
"@I c #ce2626",
"@J c #faf0f0",
"@K c #fa3737",
"@L c #c93e3e",
"@M c #f1a8a8",
"@N c #d47272",
"@O c #ebabab",
"@P c #dc2f2f",
"@Q c #c62424",
"@R c #fdf9f9",
"@S c #ff3d3d",
"@T c #f84949",
"@U c #e48d8d",
"@V c #cc1a1a",
"@W c #fb1b1b",
"@X c #dd5c5c",
"@Y c #e03939",
"@Z c #d12626",
"@` c #e82121",
"#  c #cf4444",
"#. c #f0cfcf",
"#+ c #f33030",
"#@ c #e33030",
"## c #d35050",
"#$ c #eda7a7",
"#% c #c84242",
"#& c #bd3d3d",
"#* c #fd2e2e",
"#= c #de7a7a",
"#- c #d05e5e",
"#; c #f52828",
"#> c #d49494",
"#, c #d41414",
"#' c #d06363",
"#) c #cd6666",
"#! c #e3b3b3",
"#~ c #ff6666",
"#{ c #e8a9a9",
"#] c #ff7474",
"#^ c #e75959",
"#/ c #d31515",
"#( c #df3131",
"#_ c #e04e4e",
"#: c #e00e0e",
"#< c #d42727",
"#[ c #fa3c3c",
"#} c #e8c2c2",
"#| c #fefafa",
"#1 c #e79191",
"#2 c #eb2f2f",
"#3 c #d42626",
"#4 c #ca5353",
"#5 c #eebfbf",
"#6 c #e74c4c",
"#7 c #dd5e5e",
"#8 c #f4e1e1",
"#9 c #fefefe",
"#0 c #c32020",
"#a c #fb2020",
"#b c #cf6060",
"#c c #f23a3a",
"#d c #b31d1d",
"#e c #e15f5f",
"#f c #e8c3c3",
"#g c #e32a2a",
"#h c #fbf2f2",
"#i c #d32424",
"#j c #d92828",
"#k c #ff6b6b",
"#l c #e38b8b",
"#m c #eb1616",
"#n c #e53232",
"#o c #d83636",
"#p c #f7e9e9",
"#q c #eb5252",
"#r c #e34343",
"#s c #d12c2c",
"#t c #e82626",
"#u c #e11f1f",
"#v c #da4646",
"#w c #ff2121",
"#x c #d62d2d",
"#y c #fefbfb",
"#z c #fd5c5c",
"#A c #edc4c4",
"#B c #f66262",
"#C c #eea3a3",
"#D c #e3a5a5",
"#E c #d99b9b",
"#F c #f91515",
"#G c #fe1e1e",
"#H c #f44848",
"#I c #f96363",
"#J c #e41d1d",
"#K c #f7e7e7",
"#L c #ed2f2f",
"#M c #ff2a2a",
"#N c #e12121",
"#O c #fb5757",
"#P c #db4c4c",
"#Q c #cc1e1e",
"#R c #ff1f1f",
"#S c #fd2929",
"#T c #fc5353",
"#U c #d84e4e",
"#V c #d72727",
"#W c #df0c0c",
"#X c #f8e7e7",
"#Y c #f73636",
"#Z c #c71a1a",
"#` c #e65858",
"$  c #f23d3d",
"$. c #fd3737",
"$+ c #e4a2a2",
"$@ c #ff7676",
"$# c #da0404",
"$$ c #f32c2c",
"$% c #f8eded",
"$& c #de5656",
"$* c #ff1818",
"$= c #f4dede",
"$- c #fe5c5c",
"$; c #e32525",
"$> c #ef5c5c",
"$, c #fc6161",
"$' c #fe1010",
"$) c #e44343",
"$! c #fa4d4d",
"$~ c #e1a1a1",
"${ c #ea2e2e",
"$] c #e7adad",
"$^ c #e13131",
"$/ c #fe2525",
"$( c #ef2f2f",
"$_ c #ff2626",
"$: c #f64c4c",
"$< c #dc6e6e",
"$[ c #ff6262",
"$} c #c90a0a",
"$| c #da4343",
"$1 c #e39494",
"$2 c #e79696",
"$3 c #cb4848",
"$4 c #d65353",
"$5 c #ff3333",
"$6 c #de2c2c",
"$7 c #f81a1a",
"$8 c #df3535",
"$9 c #d51515",
"$0 c #ff1717",
"$a c #e75454",
"$b c #ff7070",
"$c c #e19191",
"$d c #d14444",
"$e c #d96c6c",
"$f c #d92b2b",
"$g c #f93131",
"$h c #dd4141",
"$i c #ef2c2c",
"$j c #f84444",
"$k c #de3838",
"$l c #e4adad",
"$m c #cf2626",
"$n c #efc8c8",
"$o c #f0d2d2",
"$p c #d26b6b",
"$q c #f43e3e",
"$r c #e6b6b6",
"$s c #fefcfc",
"$t c #f75656",
"$u c #e7b3b3",
"+N+m+m+m+m+m+m+m+m+m+m+m+m+m+m+m+m+m+m+m+m+m+m+m+m+m+m+m+m+m+m+m+m+m+m+m+m+m+m+m+m+m+m+m+m+m+m+N",
"+m#M$@._._._._._._._._._._._._._._._._._._._._._._._._._._._._._._._._._._._._._._._._._._$@#M.:",
"+m+3+m+m+m+m+m+m+m+m+m+m+m+m+m+m+m+m+m+m+m+m+m+m+m+m+m+m+m+m+m+m+m+m+m+m+m+m+m+m+m+m+m+m+m+m+3.:",
"+m@'@'@'@'@'@'@'@'@'@'@'@'@'@'@'@'@'@'@'@'@'@'@'@'@'@'@'@'@'@'@'@'@'@'@'@'@'@'@'@'@'@'@'@'@'@'.:",
"+m#]#]#]#]#]#]#]#]#]#]#]#]#]#]#]#]#]#]#]#]#]#]#]#]#]#]#]#]#]#]#]#]#]#]#]#]#]#]#]#]#]#]#]#]#]#].:",
"+m$b$b$b$b$b$b$b$b$b$b$b$b$b$b$b$b$b$b$b$b$b$b$b$b$b$b$b$b$b$b$b$b$b$b$b$b$b$b$b$b$b$b$b$b$b$b.:",
"+m#k#k#k#k#k#k#k#k#k#k#k#k#k#k#k#k#k#k#k#k#k#k#k#k#k#k#k#k#k#k#k#k#k#k#k#k#k#k#k#k#k#k#k#k#k#k.:",
"+m#~#~#~#~#~#~#~#~#~#~#~#~#~#~#~#~#~#~#~#~#~#~#~#~#~#~@s@z M#B#B#I.=#~#~#~#~#~#~#~#~#~#~#~#~#~.:",
"+m$[$[$[$[$[$[$[$[$[$[$[$[$[$[$[$[$[$[@@.l.l.l@@$[$[$[$, A#^+<#`$>@^@@$[$[$[$[$[$[$[$[$[$[$[$[.:",
"+m+T+T+T+T+T+T+T+T+T+T+T+T+T+T+T+T$-#z+V@0@0+G+K#z+T#z+V$a+c.J@#+7+V$-+T+T+T+T+T+T+T+T+T+T+T+T.:",
"+m.|.|.|.|.|.|.|.|.|.|.|.|.|.|.|.|.O$t#q#_.Y+w+O#O.|+}.e#P#D$s.t#e.B.O.|.|.|.|.|.|.|.|.|.|.|.|.:",
"+m+>+>+>+>+>+>+>+>+>+>+>+>+>+>+>+>@4.H.1+v$c$2#6.]+>#T.j# +U.t+E I+R+>+>+>+>+>+>+>+>+>+>+>+>+>.:",
"+m@b@b@b@b@b@b@b@b@b@b@b@b@b@b@b@b$!.c+&@R.t+x.G$:@b$! Z@L.N.t#K$|@)@b@b@b@b@b@b@b@b@b@b@b@b@b.:",
"+m.y.y.y.y.y.y.y.y.y.y.y.y.y.y.y.y@T$)$3.t.t+M  #H.y@F#r#%#9.t+M$h+0.y.y.y.y.y.y.y.y.y.y.y.y.y.:",
"+m X X X X X X X X X X X X X X X X@B.>@$.t.t+C@A+I X.,@{@r.t.t.h@u$j X X X X X X X X X X X X X.:",
"+m P P P P P P P P P P P P P P P P$q@Y#-.t.t@H+#$  P+8$k$p.t.t.+@Y+' P P P P P P P P P P P P P.:",
"+m@S@S@S@S@S@S@S@S@S@S@S@S@S@S@S@S@q$8+~.t.t$=.f#c@S `.Z@N.t.t$].q#[@S@S@S@S@S@S@S@S@S@S@S@S@S.:",
"+m.`.`.`.`.`.`.`.`.`.`.`.`.`.`.`.`#Y#( ..t.t.%@~+-.`+2.u+a.t.t+4$^.3.`@v$..~@K@f#Y#Y@f@K$..`.`.:",
"+m$5$5$5$5$5$5$5$5$5$5$5$5$5$5$5$5+l$6+t.t.t@a.g ++l +.g+Y.t.t+z$f$(#+@k +$(#L#2${${+d#+$g O$5.:",
"+m@6@6@6@6@6@6@6@6@6@6@6@6@6.r#*.9$$#j#'.t.t#p@Q+|.A.d E.@.t.t@y E@+#V.;#< Q@Z$m@I@I#V#g$i.9@6.:",
"+m#M#M#M#M#M#M#M+ #S+F.z.-@] C#t.F@G@/@n.t.t.7#d#0.m+( K@d.t.t+P+y+@+:@e.R+;$~$l$r.L$n#$$;#;+ .:",
"+m$_$_$_$_$/.T@g@5.p@-#N @@( S#Q. +Q@7#>.t.t@=#f+9+q+].t.t.t.t.t.t.t.t.t.t.t.t.t.t.t.t#|#@.E$/.:",
"+m#R#w@_#a@>.$#J+D#/.6#Z+^.!$+ R+{.t.t.t.t.t.t.t.t.t.t.t.t.t.t.t.t.t.t.t.t.t.t.t.t.t.t.t.v@>#G.:",
"+m$'@W+*.Q.C.a$}## Y#.+E.t.t.t.t.t.t.t.t.t.t.t@3.V@c@.#4#E.t.t@2#0#i.*.*@x.g.g@C#x#x@P#n+n$7@[.:",
"+m #.}@< $ %+.@J.t.t.t.t.t.t.t@; N@*@:.M.t.t.t+_ & *+i D.X.t.t T#,#m B B B B B B B.(+g.S+[++ =.:",
"+m - ;@i+J.t.t.t.t.t$s.{@U@X L.I > , '.w.t.t.t#3 ) - ! ~.s.t.t+Z#:#F$0$*$*$0.4.k.D.U@j = = = =.:",
"+m - )@M.t.t.t#h@O#7$9 { ] ^ / ( _ : <.<.t.t.t#o [ } _ |$d.t.t.& , 1 2 } 2 } 3 _ 1 _ : 1 - 2 4.:",
"+m - [+1+L#1#v@p | 5 / ! 3 # 2 = = } ^ 6+S.t.t.W ) 2 1 ,.o.t.t#5 $ [ 7 / ) ^ 8 9 ] > | * / : 2.:",
"+m # 0 ; * 9 a b _ } 2 4 = = = = = # c d@H.t.t$4 > e a f@&.t.t.^ g f $ f+W+`#s+X+b G#l#C.i e }.:",
"+m = # - - - # 4 = = = = = 2 2 # 3 ! ] h.).t.t#b h i j.x#&.t.t$%+o+h@D#X$s.t.t.t.t.t.t.t@% ) 3.:",
"+m = = = = = = = = = 2 # 1 0 / ^ ] ~ k.n#!.t.t+)$u+s@;.t.t.t.t.t.t.t.t.t.t.t.t.t.t.t.t.t l ) 3.:",
"+m = = = = = = = 2 1 m c < { V Q.[ W+H@l.t.t.t.t.t.t.t.t.t.t.t.t..+9@ +k$1+j#=$<.0+%#U.b+6 b -.:",
"+m = = = = = = 2 n ) o@|./#{+=.t.t.t.t.t.t.t.t.t...'@}+$#)#}.t.t@1 p q & r ~ > , ] < 8 ) m 1 2.:",
"+m = = = = = = 2 m F+r$s.t.t.t.t.t.t.t#8 H.t.t+f U j & i s@9.t.t$e t [ ( ( n _ 1 ! n _ 3 } 2 =.:",
"+m = = = = = = 2 b#u+5.t.t.t+]@8+!+A@, u+p@!.t#A j 5 m / t+/.t.t.5 ] 3 = = = = = = = = = = = =.:",
"+m = = = = = = 2 m ]$&+B+u+,.# f v , w v x$o.t J r ! = - w@V.t.t+e ~ n 4 = = = = = = = = = = =.:",
"+m = = = = = = 4 1 [ <.K t > 8 [ ( 1 - / q.2.t#y$# ! = # ) '@o.t.t@h m 4 = = = = = = = = = = =.:",
"+m = = = = = = = 2 1 ! ( m : } 2 4 = 2 n ].P.t.t#J n = 4 m o@w.t.t.8 m 4 = = = = = = = = = = =.:",
"+m = = = = = = = = = 4 4 4 = = = = = 4 - [#W@m#@@E 1 = 2 1 c@t y z@` ! 4 = = = = = = = = = = =.:",
"+m = = = = = = = = = = = = = = = = = = # n e ; [ 0 } = = # ! ; 5 ^ 7 1 4 = = = = = = = = = = =.:",
"+m = = = = = = = = = = = = = = = = = = = 2 3 1 1 } 4 = = 4 } } 3 3 } # = = = = = = = = = = = =.:",
"+m = = = = = = = = = = = = = = = = = = = = = = = = = = = = = = = = = = = = = = = = = = = = = =.:",
"+m = = = = = = = = = = = = = = = = = = = = = = = = = = = = = = = = = = = = = = = = = = = = = =.:",
"+m = = = = = = = = = = = = = = = = = = = = = = = = = = = = = = = = = = = = = = = = = = = = = =.:",
"+m = = = = = = = = = = = = = = = = = = = = = = = = = = = = = = = = = = = = = = = = = = = = = =.:",
"+m = = = = = = = = = = = = = = = = = = = = = = = = = = = = = = = = = = = = = = = = = = = = = =.:",
"+m = = = = = = = = = = = = = = = = = = = = = = = = = = = = = = = = = = = = = = = = = = = = = =.:",
"+N+m+m+m+m+m+m+m+m+m+m+m+m+m+m+m+m+m+m+m+m+m+m+m+m+m+m+m+m+m+m+m+m+m+m+m+m+m+m+m+m+m+m+m+m+m+m+N",
};